<svg width="40" height="40" viewBox="0 0 40 40" fill="none" xmlns="http://www.w3.org/2000/svg">
<mask id="mask0_6253_14226" style="mask-type:luminance" maskUnits="userSpaceOnUse" x="0" y="0" width="40" height="40">
<path d="M40 0H0V40H40V0Z" fill="white"/>
</mask>
<g mask="url(#mask0_6253_14226)">
<path d="M20 40C31.0457 40 40 31.0457 40 20C40 8.95431 31.0457 0 20 0C8.95431 0 0 8.95431 0 20C0 31.0457 8.95431 40 20 40Z" fill="#F8F9FB"/>
<mask id="path-3-inside-1_6253_14226" fill="white">
<path fill-rule="evenodd" clip-rule="evenodd" d="M14 12C11.7909 12 10 13.7909 10 16V24C10 26.2091 11.7909 28 14 28H26C28.2091 28 30 26.2091 30 24V16C30 13.7909 28.2091 12 26 12H14ZM24.2938 22.2315C24.0538 22.4315 23.7238 22.5115 23.4138 22.4315L12.3038 19.7115L12.1538 17.0115V16.4615C12.1538 15.3615 13.0538 14.4615 14.1538 14.4615H26.1538C27.2538 14.4615 28.1538 15.3615 28.1538 16.4615V17.0115L27.7838 19.3015L24.2938 22.2315Z"/>
</mask>
<path d="M23.4138 22.4315L23.7887 20.9791L23.7796 20.9768L23.7705 20.9746L23.4138 22.4315ZM24.2938 22.2315L25.2541 23.3839L25.2583 23.3804L24.2938 22.2315ZM12.3038 19.7115L10.8062 19.7947L10.8678 20.9043L11.9471 21.1685L12.3038 19.7115ZM12.1538 17.0115H10.6538V17.0532L10.6562 17.0947L12.1538 17.0115ZM28.1538 17.0115L29.6346 17.2508L29.6538 17.1319V17.0115H28.1538ZM27.7838 19.3015L28.7483 20.4504L29.1756 20.0916L29.2646 19.5408L27.7838 19.3015ZM11.5 16C11.5 14.6193 12.6193 13.5 14 13.5V10.5C10.9624 10.5 8.5 12.9624 8.5 16H11.5ZM11.5 24V16H8.5V24H11.5ZM14 26.5C12.6193 26.5 11.5 25.3807 11.5 24H8.5C8.5 27.0376 10.9624 29.5 14 29.5V26.5ZM26 26.5H14V29.5H26V26.5ZM28.5 24C28.5 25.3807 27.3807 26.5 26 26.5V29.5C29.0376 29.5 31.5 27.0376 31.5 24H28.5ZM28.5 16V24H31.5V16H28.5ZM26 13.5C27.3807 13.5 28.5 14.6193 28.5 16H31.5C31.5 12.9624 29.0376 10.5 26 10.5V13.5ZM14 13.5H26V10.5H14V13.5ZM23.039 23.884C23.8301 24.0881 24.6543 23.8838 25.2541 23.3839L23.3336 21.0792C23.4534 20.9793 23.6176 20.935 23.7887 20.9791L23.039 23.884ZM11.9471 21.1685L23.0571 23.8885L23.7705 20.9746L12.6605 18.2546L11.9471 21.1685ZM10.6562 17.0947L10.8062 19.7947L13.8015 19.6283L13.6515 16.9283L10.6562 17.0947ZM10.6538 16.4615V17.0115H13.6538V16.4615H10.6538ZM14.1538 12.9615C12.2254 12.9615 10.6538 14.5331 10.6538 16.4615H13.6538C13.6538 16.19 13.8823 15.9615 14.1538 15.9615V12.9615ZM26.1538 12.9615H14.1538V15.9615H26.1538V12.9615ZM29.6538 16.4615C29.6538 14.5331 28.0823 12.9615 26.1538 12.9615V15.9615C26.4254 15.9615 26.6538 16.19 26.6538 16.4615H29.6538ZM29.6538 17.0115V16.4615H26.6538V17.0115H29.6538ZM29.2646 19.5408L29.6346 17.2508L26.673 16.7723L26.303 19.0623L29.2646 19.5408ZM25.2583 23.3804L28.7483 20.4504L26.8194 18.1527L23.3294 21.0827L25.2583 23.3804Z" fill="#0C1E58" mask="url(#path-3-inside-1_6253_14226)"/>
<path fill-rule="evenodd" clip-rule="evenodd" d="M12.277 19.2276C12.7667 18.7308 13.4474 18.4229 14.2 18.4229H25C25.9723 18.4229 26.8245 18.9367 27.2999 19.7077L27.7839 19.3013L27.9695 18.1526C27.2094 17.3928 26.1596 16.9229 25 16.9229H14.2C13.4669 16.9229 12.7776 17.1107 12.1777 17.4409L12.277 19.2276Z" fill="#495EA1"/>
</g>
</svg>
